<?xml version="1.0" encoding="UTF-8" standalone="no"?>
<!-- Created with Inkscape (http://www.inkscape.org/) -->

<svg
   xmlns:dc="http://purl.org/dc/elements/1.1/"
   xmlns:cc="http://creativecommons.org/ns#"
   xmlns:rdf="http://www.w3.org/1999/02/22-rdf-syntax-ns#"
   xmlns:svg="http://www.w3.org/2000/svg"
   xmlns="http://www.w3.org/2000/svg"
   xmlns:sodipodi="http://sodipodi.sourceforge.net/DTD/sodipodi-0.dtd"
   xmlns:inkscape="http://www.inkscape.org/namespaces/inkscape"
   width="500"
   height="500"
   viewBox="0 0 500.00001 500.00001"
   id="svg2"
   version="1.1"
   inkscape:version="0.91 r13725"
   sodipodi:docname="nurassyl.svg">
  <defs
     id="defs4" />
  <sodipodi:namedview
     id="base"
     pagecolor="#ffffff"
     bordercolor="#666666"
     borderopacity="1.0"
     inkscape:pageopacity="0.0"
     inkscape:pageshadow="2"
     inkscape:zoom="0.35"
     inkscape:cx="-11.354574"
     inkscape:cy="461.87781"
     inkscape:document-units="px"
     inkscape:current-layer="layer1"
     showgrid="false"
     units="px"
     inkscape:window-width="1301"
     inkscape:window-height="744"
     inkscape:window-x="65"
     inkscape:window-y="24"
     inkscape:window-maximized="1" />
  <metadata
     id="metadata7">
    <rdf:RDF>
      <cc:Work
         rdf:about="">
        <dc:format>image/svg+xml</dc:format>
        <dc:type
           rdf:resource="http://purl.org/dc/dcmitype/StillImage" />
        <dc:title></dc:title>
      </cc:Work>
    </rdf:RDF>
  </metadata>
  <g
     inkscape:label="bg"
     inkscape:groupmode="layer"
     id="layer1"
     transform="translate(0,-552.36216)">
    <rect
       style="fill:#17a2b8;fill-opacity:1;stroke:none"
       id="rect4159"
       width="500"
       height="500"
       x="0"
       y="552.36218"
       ry="37.375645" />
  </g>
  <g
     inkscape:groupmode="layer"
     id="layer3"
     inkscape:label="text">
    <g
       style="font-style:normal;font-weight:normal;font-size:584.7746582px;line-height:125%;font-family:sans-serif;letter-spacing:0px;word-spacing:0px;fill:#ffffff;fill-opacity:1;stroke:none;stroke-width:1px;stroke-linecap:butt;stroke-linejoin:miter;stroke-opacity:1"
       id="text4155"
       transform="translate(2.5e-6,-16.989295)">
      <path
         d="m 412.46913,98.238427 q -6.28176,0.571069 -9.42264,4.568553 -2.85534,3.99748 -2.85534,8.2805 l 0,352.06404 -45.68552,0 -217.57729,-327.50807 0,287.24771 q 0,4.28301 2.85534,8.2805 3.14088,3.99748 9.42264,4.56855 l 33.40754,2.28427 0,25.12704 -126.491787,0 0,-25.12704 33.407536,-2.28427 q 6.281759,-0.57107 9.422639,-4.56855 3.426412,-3.99749 3.426412,-8.2805 l 0,-311.80368 q 0,-4.28302 -3.426412,-8.2805 -3.14088,-3.997484 -9.422639,-4.568553 l -34.549674,-2.284276 0,-25.127036 115.927005,0 0,14.56226 194.73453,294.100535 0,-268.40243 q 0,-4.28302 -3.14088,-8.2805 -3.14088,-3.997484 -9.1371,-4.568553 l -33.40754,-2.284276 0,-25.127036 125.06411,0 0,25.127036 -32.55093,2.284276 z"
         style="font-style:normal;font-variant:normal;font-weight:normal;font-stretch:normal;font-family:'Abyssinica SIL';-inkscape-font-specification:'Abyssinica SIL'"
         id="path4205"
         inkscape:connector-curvature="0" />
    </g>
  </g>
</svg>
